<mxfile host="app.diagrams.net" modified="2024-03-29T17:47:37.059Z" agent="Mozilla/5.0 (Windows NT 10.0; Win64; x64) AppleWebKit/537.36 (KHTML, like Gecko) Chrome/123.0.0.0 Safari/537.36" etag="qaHDMeAIydMf4TAEKbNs" version="24.2.1" type="device">
  <diagram name="Page-1" id="j3bJ796ipqwLlpyQ7kwF">
    <mxGraphModel dx="1103" dy="594" grid="1" gridSize="10" guides="1" tooltips="1" connect="1" arrows="1" fold="1" page="1" pageScale="1" pageWidth="827" pageHeight="1169" math="0" shadow="0">
      <root>
        <mxCell id="0" />
        <mxCell id="1" parent="0" />
        <mxCell id="htj9lrFPSWlIHF2Fdgeb-1" value="" style="rounded=1;whiteSpace=wrap;html=1;perimeterSpacing=0;arcSize=5;fillColor=#697a91;strokeColor=default;strokeWidth=3;" vertex="1" parent="1">
          <mxGeometry x="140" y="130" width="540" height="480" as="geometry" />
        </mxCell>
        <mxCell id="htj9lrFPSWlIHF2Fdgeb-2" value="" style="rounded=1;whiteSpace=wrap;html=1;fillColor=#d7e0e5;strokeColor=default;arcSize=8;strokeWidth=2;fillStyle=solid;gradientColor=none;shadow=1;" vertex="1" parent="1">
          <mxGeometry x="160" y="150" width="150" height="440" as="geometry" />
        </mxCell>
        <mxCell id="htj9lrFPSWlIHF2Fdgeb-3" value="" style="rounded=1;whiteSpace=wrap;html=1;fillColor=#D7E0E5;strokeColor=default;arcSize=8;strokeWidth=2;shadow=1;fillStyle=solid;" vertex="1" parent="1">
          <mxGeometry x="320" y="150" width="150" height="440" as="geometry" />
        </mxCell>
        <mxCell id="htj9lrFPSWlIHF2Fdgeb-4" value="" style="rounded=1;whiteSpace=wrap;html=1;fillColor=#D7E0E5;strokeColor=default;arcSize=8;strokeWidth=2;shadow=1;shadowBlur=2;" vertex="1" parent="1">
          <mxGeometry x="480" y="150" width="150" height="440" as="geometry" />
        </mxCell>
        <mxCell id="htj9lrFPSWlIHF2Fdgeb-5" value="" style="rounded=1;whiteSpace=wrap;html=1;fillStyle=solid;fillColor=#385170;strokeColor=default;fontColor=#000000;" vertex="1" parent="1">
          <mxGeometry x="175" y="170" width="120" height="100" as="geometry" />
        </mxCell>
        <mxCell id="htj9lrFPSWlIHF2Fdgeb-9" value="" style="rounded=1;whiteSpace=wrap;html=1;fillColor=#385170;fontColor=#ffffff;strokeColor=default;" vertex="1" parent="1">
          <mxGeometry x="495" y="170" width="120" height="100" as="geometry" />
        </mxCell>
        <mxCell id="htj9lrFPSWlIHF2Fdgeb-10" value="" style="rounded=1;whiteSpace=wrap;html=1;fillColor=#385170;fontColor=#ffffff;strokeColor=default;" vertex="1" parent="1">
          <mxGeometry x="335" y="170" width="120" height="100" as="geometry" />
        </mxCell>
        <mxCell id="htj9lrFPSWlIHF2Fdgeb-27" value="" style="rounded=1;whiteSpace=wrap;html=1;fillColor=#385170;strokeColor=default;fontColor=#000000;gradientColor=none;opacity=30;" vertex="1" parent="1">
          <mxGeometry x="495" y="390" width="120" height="100" as="geometry" />
        </mxCell>
        <mxCell id="htj9lrFPSWlIHF2Fdgeb-40" value="" style="verticalLabelPosition=bottom;verticalAlign=top;html=1;shape=mxgraph.basic.rect;fillColor2=none;strokeWidth=2;size=8;indent=5;top=1;topLeftStyle=rounded;bottomLeftStyle=rounded;fillColor=#d7e0e5;strokeColor=default;right=0;shadow=1;" vertex="1" parent="1">
          <mxGeometry x="640" y="150" width="38" height="440" as="geometry" />
        </mxCell>
        <mxCell id="htj9lrFPSWlIHF2Fdgeb-41" value="" style="verticalLabelPosition=bottom;verticalAlign=top;html=1;shape=mxgraph.basic.rect;fillColor2=none;strokeWidth=1;size=12;indent=5;topLeftStyle=rounded;topRightStyle=rounded;fillColor=#385170;strokeColor=default;fontColor=#000000;bottom=0;" vertex="1" parent="1">
          <mxGeometry x="175" y="500" width="120" height="89" as="geometry" />
        </mxCell>
        <mxCell id="htj9lrFPSWlIHF2Fdgeb-54" value="" style="verticalLabelPosition=bottom;verticalAlign=top;html=1;shape=mxgraph.basic.rect;fillColor2=none;strokeWidth=1;size=8;indent=5;top=1;topLeftStyle=rounded;bottomLeftStyle=rounded;fillColor=#385170;strokeColor=default;fontColor=#ffffff;right=0;" vertex="1" parent="1">
          <mxGeometry x="652" y="170" width="26" height="100" as="geometry" />
        </mxCell>
        <mxCell id="htj9lrFPSWlIHF2Fdgeb-57" value="" style="rounded=1;whiteSpace=wrap;html=1;fillStyle=solid;fillColor=#385170;strokeColor=default;fontColor=#000000;" vertex="1" parent="1">
          <mxGeometry x="175" y="280" width="120" height="100" as="geometry" />
        </mxCell>
        <mxCell id="htj9lrFPSWlIHF2Fdgeb-58" value="" style="rounded=1;whiteSpace=wrap;html=1;fillStyle=solid;fillColor=#385170;strokeColor=default;fontColor=#000000;" vertex="1" parent="1">
          <mxGeometry x="175" y="390" width="120" height="100" as="geometry" />
        </mxCell>
        <mxCell id="htj9lrFPSWlIHF2Fdgeb-59" value="" style="rounded=1;whiteSpace=wrap;html=1;fillColor=#385170;fontColor=#ffffff;strokeColor=default;" vertex="1" parent="1">
          <mxGeometry x="335" y="280" width="120" height="100" as="geometry" />
        </mxCell>
        <mxCell id="htj9lrFPSWlIHF2Fdgeb-20" value="" style="html=1;shadow=0;dashed=0;align=center;verticalAlign=middle;shape=mxgraph.arrows2.jumpInArrow;dy=12.8;dx=53.55;arrowHead=60.5;flipV=1;flipH=0;fillColor=#FFFFFF;strokeColor=#000000;gradientColor=#15203c;gradientDirection=east;" vertex="1" parent="1">
          <mxGeometry x="230" y="270" width="265" height="200" as="geometry" />
        </mxCell>
        <mxCell id="htj9lrFPSWlIHF2Fdgeb-60" value="" style="rounded=1;whiteSpace=wrap;html=1;fillColor=#385170;fontColor=#ffffff;strokeColor=default;" vertex="1" parent="1">
          <mxGeometry x="495" y="280" width="120" height="100" as="geometry" />
        </mxCell>
        <mxCell id="htj9lrFPSWlIHF2Fdgeb-61" value="" style="verticalLabelPosition=bottom;verticalAlign=top;html=1;shape=mxgraph.basic.rect;fillColor2=none;strokeWidth=1;size=8;indent=5;top=1;topLeftStyle=rounded;bottomLeftStyle=rounded;fillColor=#385170;strokeColor=default;fontColor=#ffffff;right=0;" vertex="1" parent="1">
          <mxGeometry x="652" y="280" width="27" height="100" as="geometry" />
        </mxCell>
      </root>
    </mxGraphModel>
  </diagram>
</mxfile>
